<svg width="33" height="29" viewBox="0 0 33 29" fill="none" xmlns="http://www.w3.org/2000/svg">
<path d="M17.8889 2.42109L19.3395 1.1486V0.445984H16.4772H13.6182V1.1486L15.0687 2.42109V11.2314L16.4772 14.4984L17.8889 11.2314V2.42109Z" fill="#ECEEED"/>
<path d="M2.72934 13.2615L1.27876 11.9858H0.479004V14.4984V17.011H1.27876L2.72934 15.7385H12.7603L16.4774 14.4984L12.7603 13.2615H2.72934Z" fill="#ECEEED"/>
<path d="M15.0687 26.5757L13.6182 27.8514V28.554H16.4772H19.3395V27.8514L17.8889 26.5757V17.7654L16.4772 14.4984L15.0687 17.7654V26.5757Z" fill="#ECEEED"/>
<path d="M30.2288 15.7385L31.6794 17.011H32.4792V14.4984V11.9858H31.6794L30.2288 13.2615H20.1979L16.4775 14.4984L20.1979 15.7385H30.2288Z" fill="#ECEEED"/>
</svg>
