<svg width="33" height="29" viewBox="0 0 33 29" fill="none" xmlns="http://www.w3.org/2000/svg">
<path d="M22.6991 0.307037H10.2589C8.98833 0.307037 7.81083 0.978929 7.17552 2.06993L0.955487 12.7371C0.320176 13.8281 0.320176 15.1719 0.955487 16.2629L7.17552 26.9301C7.81083 28.0211 8.985 28.693 10.2589 28.693H22.6991C23.9697 28.693 25.1472 28.0211 25.7825 26.9301L32.0025 16.2629C32.6378 15.1719 32.6378 13.8281 32.0025 12.7371L25.7825 2.06993C25.1472 0.978929 23.973 0.307037 22.6991 0.307037ZM5.11659 8.48952L5.54235 7.75775C6.91276 5.40944 10.3388 5.40944 11.7092 7.75775C13.2692 10.432 11.32 13.7749 8.20001 13.7749C5.45919 13.7749 3.74618 10.8378 5.11659 8.48952ZM11.7092 21.2389C10.3388 23.5872 6.91276 23.5872 5.54235 21.2389L5.11659 20.5071C3.74618 18.1588 5.45919 15.2218 8.20001 15.2218C11.32 15.2218 13.2692 18.5646 11.7092 21.2389ZM16.9081 27.2494H16.0566C13.3158 27.2494 11.6028 24.3123 12.9732 21.964C14.5332 19.2898 18.4315 19.2898 19.9915 21.964C21.3619 24.3123 19.6489 27.2494 16.9081 27.2494ZM19.9915 7.0393C18.4315 9.71358 14.5332 9.71358 12.9732 7.0393C11.6028 4.69099 13.3158 1.75393 16.0566 1.75393H16.9081C19.6489 1.75393 21.3619 4.69099 19.9915 7.0393ZM27.8447 20.5105L27.419 21.2422C26.0486 23.5906 22.6225 23.5906 21.2521 21.2422C19.6921 18.568 21.6413 15.2251 24.7613 15.2251C27.5021 15.2251 29.2151 18.1622 27.8447 20.5105ZM27.419 7.76108L27.8447 8.49285C29.2151 10.8412 27.5021 13.7782 24.7613 13.7782C21.6413 13.7782 19.6921 10.4354 21.2521 7.76108C22.6225 5.41277 26.0486 5.41277 27.419 7.76108Z" fill="#ECEEED"/>
</svg>
