<svg width="160" height="193" viewBox="0 0 160 193" fill="none" xmlns="http://www.w3.org/2000/svg">
<path fill-rule="evenodd" clip-rule="evenodd" d="M80 17.8982L78.598 46.6527L49.9582 48.0603L78.6247 49.4693L80 137.391L81.3753 49.4693L110.042 48.0603L81.402 46.6527L80 17.8982ZM76.938 44.9861L79.1315 0H80.8685L83.062 44.9861L127.869 47.1883V48.9323L83.0887 51.1333L80.8695 193H79.1305L76.9113 51.1333L32.1314 48.9323V47.1883L76.938 44.9861Z" fill="#ECEEED"/>
<path fill-rule="evenodd" clip-rule="evenodd" d="M158.261 103.499C158.261 103.499 158.261 103.496 158.26 103.492C158.259 103.487 158.257 103.478 158.252 103.462C158.242 103.432 158.216 103.373 158.157 103.287C158.032 103.107 157.791 102.852 157.361 102.542C156.493 101.918 155.102 101.243 153.143 100.561C149.247 99.2038 143.515 97.9529 136.316 96.8923C121.946 94.7752 102.034 93.4588 80 93.4588C57.966 93.4588 38.0544 94.7752 23.684 96.8923C16.4854 97.9529 10.7526 99.2038 6.85682 100.561C4.89792 101.243 3.50673 101.918 2.63879 102.542C2.20893 102.852 1.96755 103.107 1.84308 103.287C1.78376 103.373 1.75841 103.432 1.74791 103.462C1.74269 103.478 1.74068 103.487 1.7399 103.492C1.73914 103.496 1.73913 103.498 1.73913 103.499C1.73913 103.5 1.73914 103.502 1.7399 103.506C1.74068 103.51 1.74269 103.52 1.74791 103.535C1.75841 103.566 1.78376 103.624 1.84308 103.71C1.96755 103.891 2.20893 104.146 2.63879 104.455C3.50673 105.08 4.89792 105.755 6.85682 106.437C10.7526 107.794 16.4854 109.045 23.684 110.105C38.0544 112.222 57.966 113.539 80 113.539C102.034 113.539 121.946 112.222 136.316 110.105C143.515 109.045 149.247 107.794 153.143 106.437C155.102 105.755 156.493 105.08 157.361 104.455C157.791 104.146 158.032 103.891 158.157 103.71C158.216 103.624 158.242 103.566 158.252 103.535C158.257 103.52 158.259 103.51 158.26 103.506C158.261 103.502 158.261 103.5 158.261 103.499ZM80 115.285C124.183 115.285 160 110.008 160 103.499C160 96.9895 124.183 91.7127 80 91.7127C35.8172 91.7127 0 96.9895 0 103.499C0 110.008 35.8172 115.285 80 115.285Z" fill="#ECEEED"/>
<path fill-rule="evenodd" clip-rule="evenodd" d="M158.261 103.499C158.261 103.499 158.261 103.496 158.26 103.492C158.259 103.487 158.257 103.478 158.252 103.462C158.242 103.432 158.216 103.373 158.157 103.287C158.032 103.107 157.791 102.852 157.361 102.542C156.493 101.918 155.102 101.243 153.143 100.561C149.247 99.2038 143.515 97.9529 136.316 96.8923C121.946 94.7752 102.034 93.4588 80 93.4588C57.966 93.4588 38.0544 94.7752 23.684 96.8923C16.4854 97.9529 10.7526 99.2038 6.85682 100.561C4.89792 101.243 3.50673 101.918 2.63879 102.542C2.20893 102.852 1.96755 103.107 1.84308 103.287C1.78376 103.373 1.75841 103.432 1.74791 103.462C1.74269 103.478 1.74068 103.487 1.7399 103.492C1.73914 103.496 1.73913 103.498 1.73913 103.499C1.73913 103.5 1.73914 103.502 1.7399 103.506C1.74068 103.51 1.74269 103.52 1.74791 103.535C1.75841 103.566 1.78376 103.624 1.84308 103.71C1.96755 103.891 2.20893 104.146 2.63879 104.455C3.50673 105.08 4.89792 105.755 6.85682 106.437C10.7526 107.794 16.4854 109.045 23.684 110.105C38.0544 112.222 57.966 113.539 80 113.539C102.034 113.539 121.946 112.222 136.316 110.105C143.515 109.045 149.247 107.794 153.143 106.437C155.102 105.755 156.493 105.08 157.361 104.455C157.791 104.146 158.032 103.891 158.157 103.71C158.216 103.624 158.242 103.566 158.252 103.535C158.257 103.52 158.259 103.51 158.26 103.506C158.261 103.502 158.261 103.5 158.261 103.499ZM80 115.285C124.183 115.285 160 110.008 160 103.499C160 96.9895 124.183 91.7127 80 91.7127C35.8172 91.7127 0 96.9895 0 103.499C0 110.008 35.8172 115.285 80 115.285Z" fill="#ECEEED"/>
<path fill-rule="evenodd" clip-rule="evenodd" d="M158.261 115.286C158.261 115.285 158.261 115.282 158.26 115.278C158.259 115.273 158.257 115.264 158.252 115.249C158.242 115.218 158.216 115.16 158.157 115.074C158.032 114.893 157.791 114.638 157.361 114.329C156.493 113.704 155.102 113.029 153.143 112.347C149.247 110.99 143.515 109.739 136.316 108.678C121.946 106.561 102.034 105.245 80 105.245C57.966 105.245 38.0544 106.561 23.684 108.678C16.4854 109.739 10.7526 110.99 6.85682 112.347C4.89792 113.029 3.50673 113.704 2.63879 114.329C2.20893 114.638 1.96755 114.893 1.84308 115.074C1.78376 115.16 1.75841 115.218 1.74791 115.249C1.74269 115.264 1.74068 115.273 1.7399 115.278C1.73914 115.282 1.73913 115.284 1.73913 115.285C1.73913 115.286 1.73914 115.288 1.7399 115.292C1.74068 115.297 1.74269 115.306 1.74791 115.321C1.75841 115.352 1.78376 115.41 1.84308 115.496C1.96755 115.677 2.20893 115.932 2.63879 116.241C3.50673 116.866 4.89792 117.541 6.85682 118.223C10.7526 119.58 16.4854 120.831 23.684 121.891C38.0544 124.009 57.966 125.325 80 125.325C102.034 125.325 121.946 124.009 136.316 121.891C143.515 120.831 149.247 119.58 153.143 118.223C155.102 117.541 156.493 116.866 157.361 116.241C157.791 115.932 158.032 115.677 158.157 115.496C158.216 115.41 158.242 115.352 158.252 115.321C158.257 115.306 158.259 115.297 158.26 115.292C158.261 115.289 158.261 115.287 158.261 115.286ZM80 127.071C124.183 127.071 160 121.794 160 115.285C160 108.776 124.183 103.499 80 103.499C35.8172 103.499 0 108.776 0 115.285C0 121.794 35.8172 127.071 80 127.071Z" fill="#ECEEED"/>
<path fill-rule="evenodd" clip-rule="evenodd" d="M158.261 127.072C158.261 127.071 158.261 127.068 158.26 127.064C158.259 127.059 158.257 127.05 158.252 127.035C158.242 127.004 158.216 126.946 158.157 126.86C158.032 126.679 157.791 126.424 157.361 126.115C156.493 125.49 155.102 124.815 153.143 124.133C149.247 122.776 143.515 121.525 136.316 120.465C121.946 118.347 102.034 117.031 80 117.031C57.966 117.031 38.0544 118.347 23.684 120.465C16.4854 121.525 10.7526 122.776 6.85682 124.133C4.89792 124.815 3.50673 125.49 2.63879 126.115C2.20893 126.424 1.96755 126.679 1.84308 126.86C1.78376 126.946 1.75841 127.004 1.74791 127.035C1.74269 127.05 1.74068 127.059 1.7399 127.064C1.73914 127.068 1.73913 127.07 1.73913 127.071C1.73913 127.072 1.73914 127.074 1.7399 127.078C1.74068 127.083 1.74269 127.092 1.74791 127.108C1.75841 127.138 1.78376 127.196 1.84308 127.283C1.96755 127.463 2.20893 127.718 2.63879 128.027C3.50673 128.652 4.89792 129.327 6.85682 130.009C10.7526 131.366 16.4854 132.617 23.684 133.678C38.0544 135.795 57.966 137.111 80 137.111C102.034 137.111 121.946 135.795 136.316 133.678C143.515 132.617 149.247 131.366 153.143 130.009C155.102 129.327 156.493 128.652 157.361 128.027C157.791 127.718 158.032 127.463 158.157 127.283C158.216 127.196 158.242 127.138 158.252 127.108C158.257 127.092 158.259 127.083 158.26 127.078C158.261 127.075 158.261 127.073 158.261 127.072ZM80 138.857C124.183 138.857 160 133.58 160 127.071C160 120.562 124.183 115.285 80 115.285C35.8172 115.285 0 120.562 0 127.071C0 133.58 35.8172 138.857 80 138.857Z" fill="#ECEEED"/>
<path fill-rule="evenodd" clip-rule="evenodd" d="M158.261 138.858C158.261 138.857 158.261 138.855 158.26 138.85C158.259 138.846 158.257 138.836 158.252 138.821C158.242 138.79 158.216 138.732 158.157 138.646C158.032 138.465 157.791 138.21 157.361 137.901C156.493 137.276 155.102 136.602 153.143 135.919C149.247 134.562 143.515 133.311 136.316 132.251C121.946 130.134 102.034 128.817 80 128.817C57.966 128.817 38.0544 130.134 23.684 132.251C16.4854 133.311 10.7526 134.562 6.85682 135.919C4.89792 136.602 3.50673 137.276 2.63879 137.901C2.20893 138.21 1.96755 138.465 1.84308 138.646C1.78376 138.732 1.75841 138.79 1.74791 138.821C1.74269 138.836 1.74068 138.846 1.7399 138.85C1.73914 138.855 1.73913 138.857 1.73913 138.857C1.73913 138.858 1.73914 138.86 1.7399 138.864C1.74068 138.869 1.74269 138.878 1.74791 138.894C1.75841 138.924 1.78376 138.983 1.84308 139.069C1.96755 139.249 2.20893 139.504 2.63879 139.814C3.50673 140.438 4.89792 141.113 6.85682 141.795C10.7526 143.152 16.4854 144.403 23.684 145.464C38.0544 147.581 57.966 148.897 80 148.897C102.034 148.897 121.946 147.581 136.316 145.464C143.515 144.403 149.247 143.152 153.143 141.795C155.102 141.113 156.493 140.438 157.361 139.814C157.791 139.504 158.032 139.249 158.157 139.069C158.216 138.983 158.242 138.924 158.252 138.894C158.257 138.878 158.259 138.869 158.26 138.864C158.261 138.861 158.261 138.859 158.261 138.858ZM80 150.643C124.183 150.643 160 145.367 160 138.857C160 132.348 124.183 127.071 80 127.071C35.8172 127.071 0 132.348 0 138.857C0 145.367 35.8172 150.643 80 150.643Z" fill="#ECEEED"/>
<path fill-rule="evenodd" clip-rule="evenodd" d="M158.261 150.644C158.261 150.643 158.261 150.641 158.26 150.636C158.259 150.632 158.257 150.622 158.252 150.607C158.242 150.577 158.216 150.518 158.157 150.432C158.032 150.251 157.791 149.997 157.361 149.687C156.493 149.062 155.102 148.388 153.143 147.705C149.247 146.348 143.515 145.097 136.316 144.037C121.946 141.92 102.034 140.603 80 140.603C57.966 140.603 38.0544 141.92 23.684 144.037C16.4854 145.097 10.7526 146.348 6.85682 147.705C4.89792 148.388 3.50673 149.062 2.63879 149.687C2.20893 149.997 1.96755 150.251 1.84308 150.432C1.78376 150.518 1.75841 150.577 1.74791 150.607C1.74269 150.622 1.74068 150.632 1.7399 150.636C1.73914 150.641 1.73913 150.643 1.73913 150.643C1.73913 150.644 1.73914 150.646 1.7399 150.651C1.74068 150.655 1.74269 150.665 1.74791 150.68C1.75841 150.71 1.78376 150.769 1.84308 150.855C1.96755 151.035 2.20893 151.29 2.63879 151.6C3.50673 152.225 4.89792 152.899 6.85682 153.581C10.7526 154.938 16.4854 156.189 23.684 157.25C38.0544 159.367 57.966 160.683 80 160.683C102.034 160.683 121.946 159.367 136.316 157.25C143.515 156.189 149.247 154.938 153.143 153.581C155.102 152.899 156.493 152.225 157.361 151.6C157.791 151.29 158.032 151.035 158.157 150.855C158.216 150.769 158.242 150.71 158.252 150.68C158.257 150.665 158.259 150.655 158.26 150.651C158.261 150.647 158.261 150.645 158.261 150.644ZM80 162.43C124.183 162.43 160 157.153 160 150.643C160 144.134 124.183 138.857 80 138.857C35.8172 138.857 0 144.134 0 150.643C0 157.153 35.8172 162.43 80 162.43Z" fill="#ECEEED"/>
</svg>
